HIERARCHY
ROOT hip
{
	OFFSET 0.000000 0.000000 0.000000 
	CHANNELS 6 Xposition Yposition Zposition Xrotation Zrotation Yrotation
	JOINT abdomen
	{
		OFFSET 0.000000 3.402643 0.000000 
		CHANNELS 3 Xrotation Zrotation Yrotation
		JOINT chest
		{
			OFFSET 0.000000 8.438565 -0.680529 
			CHANNELS 3 Xrotation Zrotation Yrotation
			JOINT neck
			{
				OFFSET 0.000000 10.207942 -0.272212 
				CHANNELS 3 Xrotation Zrotation Yrotation
				JOINT head
				{
					OFFSET 0.000000 3.130431 0.000000 
					CHANNELS 3 Xrotation Zrotation Yrotation
					End Site
					{
						OFFSET 0.000000 3.130435 0.000000 
					}
				}
			}
			JOINT lCollar
			{
				OFFSET 3.470700 6.669187 -0.816635 
				CHANNELS 3 Yrotation Zrotation Xrotation
				JOINT lShldr
				{
					OFFSET 3.198488 0.000000 0.000000 
					CHANNELS 3 Zrotation Yrotation Xrotation
					JOINT lForeArm
					{
						OFFSET 10.139888 0.000000 0.000000 
						CHANNELS 3 Yrotation Zrotation Xrotation
						JOINT lHand
						{
							OFFSET 8.370511 0.000000 0.000000 
							CHANNELS 3 Zrotation Yrotation Xrotation
							End Site
							{
								OFFSET 4.083176 0.000000 0.000000 
							}
						}
					}
				}
			}
			JOINT rCollar
			{
				OFFSET -3.470700 6.669187 -0.816635 
				CHANNELS 3 Yrotation Zrotation Xrotation
				JOINT rShldr
				{
					OFFSET -3.198488 0.000000 0.000000 
					CHANNELS 3 Zrotation Yrotation Xrotation
					JOINT rForeArm
					{
						OFFSET -10.139888 0.000000 0.000000 
						CHANNELS 3 Yrotation Zrotation Xrotation
						JOINT rHand
						{
							OFFSET -8.370511 0.000000 0.000000 
							CHANNELS 3 Zrotation Yrotation Xrotation
							End Site
							{
								OFFSET -4.083176 0.000000 0.000000 
							}
						}
					}
				}
			}
		}
	}
	JOINT lThigh
	{
		OFFSET 5.308129 -1.633274 1.361059 
		CHANNELS 3 Xrotation Zrotation Yrotation
		JOINT lShin
		{
			OFFSET -2.041588 -20.007561 0.000000 
			CHANNELS 3 Xrotation Zrotation Yrotation
			JOINT lFoot
			{
				OFFSET 0.000000 -19.190928 -1.224953 
				CHANNELS 3 Xrotation Yrotation Zrotation
				End Site
				{
					OFFSET 0.000000 -2.449906 4.627600 
				}
			}
		}
	}
	JOINT rThigh
	{
		OFFSET -5.308129 -1.633274 1.361059 
		CHANNELS 3 Xrotation Zrotation Yrotation
		JOINT rShin
		{
			OFFSET 2.041588 -20.007561 0.000000 
			CHANNELS 3 Xrotation Zrotation Yrotation
			JOINT rFoot
			{
				OFFSET 0.000000 -19.190928 -1.224953 
				CHANNELS 3 Xrotation Yrotation Zrotation
				End Site
				{
					OFFSET 0.000000 -2.449906 4.627600 
				}
			}
		}
	}
}
MOTION
Frames: 14
Frame Time: 0.033333
28.104296 43.446320 37.558525 -4.581836 -5.519523 -53.054626 -25.449215 0.000000 0.000000 39.152306 3.273479 -0.761026 5.321861 -12.964120 26.758360 -15.996433 4.791806 22.592518 -5.931250 -15.212621 12.436381 -53.967598 -36.552456 23.803823 -68.601997 4.621423 -22.555006 14.707001 -30.551741 -4.627308 16.679668 7.782506 21.888838 65.311951 58.439987 53.219166 29.044441 -5.779532 -37.444481 -29.005365 47.447495 -14.829071 -23.286020 18.608393 6.809132 28.092894 1.942160 7.711244 5.715148 -0.638179 -13.758373 -7.811446 -17.357992 -11.538064 47.987247 4.003689 -16.729351 -24.160318 -3.930694 14.147764 
28.104296 43.446320 37.558525 -4.581836 -5.519523 -53.054626 -25.458981 0.000000 -0.009766 39.152306 3.273479 -0.761026 5.321861 -12.964120 26.758360 -15.996433 4.791806 22.592518 -5.931250 -15.212621 12.436381 -53.967598 -36.552456 23.803823 -68.601997 4.621423 -22.555006 14.707001 -30.551741 -4.627308 16.679668 7.782506 21.888838 65.311951 58.439987 53.219166 29.044441 -5.779532 -37.444481 -29.005365 47.447495 -14.829071 -23.286020 18.608393 6.809132 28.092894 1.942160 7.711244 5.715148 -0.638179 -13.758373 -7.811446 -17.357992 -11.538064 47.987247 4.003689 -16.729351 -24.160318 -3.930694 14.147764 
28.108404 43.376751 37.535534 -4.572555 -5.587740 -53.098972 -25.458981 0.000000 -0.009766 39.044666 3.317828 -0.829358 5.603967 -12.660696 26.760473 -15.819000 4.706973 22.952589 -6.093530 -15.062507 12.735482 -53.760612 -36.715126 22.322630 -69.249672 4.051109 -22.543404 13.708512 -29.895481 -3.947068 16.883415 7.481962 22.172728 64.418068 58.377052 51.854088 30.533718 -5.692009 -37.565681 -28.745380 46.751251 -13.918258 -23.543560 18.709644 6.418433 28.412724 1.981428 7.937279 5.718714 -0.648498 -14.007035 -8.054645 -17.335066 -11.683485 48.495461 3.925506 -16.552692 -24.525482 -3.975524 14.226060 
28.145344 43.170887 37.522152 -4.611496 -5.548499 -53.205715 -25.458981 0.000000 -0.009766 39.057816 3.410153 -0.802835 5.087468 -13.026453 26.880016 -15.002473 5.287584 23.296593 -5.856475 -14.684691 12.158777 -54.087429 -36.991989 20.067278 -69.956886 1.600640 -22.943066 12.962562 -28.998583 -3.281216 16.919741 7.159157 21.960447 62.459579 58.039581 49.297630 33.457096 -5.310774 -38.365540 -26.958605 45.688717 -10.587206 -25.051334 18.733912 5.333210 30.598326 1.805746 8.211543 5.097284 -0.276908 -14.236210 -9.149496 -17.643503 -11.573824 50.323826 3.807226 -15.916242 -25.310019 -4.186957 14.269756 
28.084686 42.961773 37.561085 -5.054789 -5.749189 -53.897228 -25.458981 0.000000 -0.009766 38.809429 3.782201 -1.445630 5.037601 -13.760961 27.530910 -14.752179 6.414656 24.068056 -5.926879 -13.700982 12.205147 -53.665443 -40.473602 18.124502 -67.842545 0.958862 -22.496317 14.004395 -26.745487 -4.192121 17.189018 6.959541 22.242655 60.442699 60.438404 46.763138 33.209961 -5.476928 -40.781235 -23.592123 44.565201 -7.599551 -26.734516 18.864243 4.546750 34.226231 1.379615 8.141798 4.821536 -0.023478 -14.618531 -9.735584 -17.956476 -11.279096 51.933311 3.378904 -14.546296 -26.353994 -4.366394 14.139693 
28.039648 42.850300 37.805229 -5.894382 -6.236646 -55.227184 -25.458981 0.000000 -0.009766 39.062080 4.745462 -2.995123 4.354468 -14.430808 29.455095 -15.019479 7.747505 25.789457 -6.083590 -10.896187 12.073018 -51.669754 -50.197159 17.463732 -61.869534 2.434711 -20.738834 15.447161 -22.738888 -6.208496 17.698246 6.858236 23.074411 55.507240 66.468079 40.106514 32.390823 -7.513333 -45.274323 -18.576841 42.709923 -4.369963 -28.168127 19.282602 4.768580 38.313286 0.916474 7.993024 6.170693 -0.303240 -14.959091 -9.452981 -18.357996 -10.414411 52.417957 2.791807 -12.808721 -26.904119 -4.396978 14.020836 
28.108852 42.823448 38.425049 -6.683252 -6.460085 -57.233356 -25.458981 0.000000 -0.009766 39.526894 6.306811 -5.002268 2.811413 -15.041316 32.126495 -15.880175 9.249468 27.904665 -6.068992 -4.756290 10.729259 -46.554783 -67.623863 14.741016 -51.348167 3.352803 -15.881211 16.438070 -16.996008 -8.624019 18.744749 7.198806 24.260094 38.794056 74.584099 17.215765 36.020523 -11.951458 -49.435001 -13.247221 38.238708 0.083010 -29.372818 20.291214 5.509713 41.814056 0.183179 8.362019 8.663840 -0.866018 -15.472235 -9.236400 -19.495590 -9.080295 52.210400 2.234801 -10.345989 -27.180819 -4.363901 14.079737 
28.312311 43.008560 39.578968 -6.968812 -5.748521 -59.767906 -25.458981 0.000000 -0.009766 39.691357 8.589931 -6.834992 -0.137532 -15.398322 35.111668 -16.447033 11.437571 29.780756 -5.185543 4.313970 6.775086 40.371498 -87.811333 -70.136452 -37.760883 2.956551 -5.945917 19.253859 -10.794569 -10.744596 20.220011 7.335373 24.887388 -10.548471 80.123055 -44.788727 44.631828 -17.233673 -49.742058 -9.094200 32.082970 3.974098 -29.445946 21.243742 6.309768 41.702259 -0.724049 10.294101 11.692789 -1.322503 -15.811046 -9.352936 -21.592806 -7.428375 50.319466 1.786629 -7.516644 -26.548197 -4.274882 14.695008 
28.513250 43.382042 41.421181 -6.747221 -4.257527 -62.895870 -25.458981 0.000000 -0.009766 38.831001 11.362125 -8.134654 -1.982088 -14.729612 38.197117 -16.513439 12.816594 32.340504 -3.247515 13.752868 1.632459 -52.604473 -112.267113 23.287689 -26.206543 3.401527 6.501743 19.905115 -4.994164 -9.149962 22.316771 7.905304 25.000000 -60.611542 75.755142 -115.316635 58.582745 -17.930613 -43.156605 -5.484900 27.785591 6.460254 -27.446138 21.938110 8.893757 37.505917 -1.120776 13.985378 14.047166 -1.963723 -14.933703 -9.090998 -24.274517 -5.754801 46.099773 1.076483 -4.621375 -24.796713 -4.200480 16.051369 
28.587540 43.784405 43.754406 -6.254322 -2.125954 -65.587532 -25.458981 0.000000 -0.009766 36.931149 14.072807 -8.549069 -1.937716 -13.133138 39.778957 -16.652113 13.835429 33.789818 0.041567 19.866821 -1.743593 -46.524826 -125.803246 16.439358 -27.497412 7.709649 20.682135 16.890158 -1.968350 -5.255523 23.563745 8.846110 25.000000 110.599289 109.897148 33.818581 74.652298 -10.491313 -36.295910 -4.583582 28.426048 4.718636 -25.017323 21.178659 13.960753 33.012787 0.012985 15.806947 14.018972 -2.082138 -14.017968 -8.066086 -27.127447 -3.889957 39.960659 0.413764 -2.914886 -21.925331 -4.495992 18.328575 
28.611340 43.918663 46.024979 -5.800781 0.019431 -66.476585 -25.458981 0.000000 -0.009766 34.746799 16.651005 -7.726880 -0.763004 -10.438456 39.826874 -16.263681 13.675533 34.289906 2.063202 24.709112 -2.653772 -43.601410 -132.289978 11.233590 -31.255331 11.818080 37.613197 19.701847 -3.451120 -3.936924 24.355810 10.717474 25.000000 114.020203 114.469009 22.624763 84.000999 -1.413811 -34.608078 -4.990006 35.042267 1.701462 -26.547499 18.928686 17.482386 35.513714 1.208952 13.597529 9.136854 -1.000377 -13.874697 -8.339054 -29.644657 -1.513172 36.997929 -0.674024 -3.037648 -18.253689 -4.691841 20.411283 
28.644945 43.695305 47.963570 -6.181983 0.601948 -64.801521 -25.458981 0.000000 -0.009766 34.124187 18.181484 -4.318469 1.229307 -9.121704 38.156368 -15.699180 11.768923 33.031330 1.569728 26.138252 -0.430102 -43.208649 -136.191971 8.305575 -30.600313 12.925123 46.401779 26.661175 -8.689292 -3.987037 24.967491 12.257342 25.000000 117.308716 117.546219 19.278448 87.883324 3.463133 -33.623863 -6.220617 40.323574 1.200715 -28.503555 16.149858 18.563019 40.376728 0.704163 12.180242 3.145950 -0.307014 -11.183133 -9.449160 -31.065302 3.429368 40.027042 -3.219214 -5.412696 -13.920743 -5.578510 24.823572 
28.628550 43.179840 49.117367 -7.431719 -0.261457 -60.219803 -25.458981 0.000000 -0.009766 35.937191 17.259140 1.205168 2.373604 -6.448316 33.981152 -14.462326 8.028405 29.650480 1.119202 25.670736 1.605984 -38.487633 -133.177109 5.198506 -33.149620 14.394220 49.473049 35.277180 -11.032799 -4.672722 25.518749 14.510059 25.000000 123.015808 112.051674 23.052351 89.590714 4.732172 -31.445061 -3.107661 48.518200 3.604866 -30.712578 13.017442 17.986813 46.040516 1.835575 9.708281 -0.382543 -0.117004 -9.944821 -10.200719 -30.549442 9.984243 48.057781 -6.267185 -8.575649 -9.135416 -6.416704 30.856825 
28.289288 42.318153 49.767502 -9.259878 -1.204801 -52.225506 -25.458981 0.000000 -0.009766 37.644413 15.500275 7.634617 4.384326 -3.733336 26.021214 -13.752335 1.572859 22.993999 -0.578528 25.533430 2.503155 -37.880650 -128.858322 7.089426 -25.576927 12.410995 45.360882 48.388714 -13.277736 -8.288016 25.327845 15.121406 25.000000 128.246826 105.231926 31.755236 80.398140 2.135784 -31.945436 4.674377 60.796196 10.290797 -32.879654 9.960299 15.818368 51.728050 2.566688 4.747349 -2.751063 -0.267898 -9.349550 -6.844923 -29.227856 14.061854 55.905930 -8.199690 -10.996386 -4.071757 -6.220494 35.899742 
